<svg class="w-[70px] md:w-[90px] lg:w-[128px]" fill="none" height="34" viewBox="0 0 128 34" width="128" xmlns="http://www.w3.org/2000/svg">
<path clip-rule="evenodd" d="M2.08098 0L0 8.43674L7.67676 16.0973L3.16332 34H21.2339L22.4165 29.5455L26.8798 34H51.7066L56.7277 28.7636L55.3329 34H76.0312L81.3313 30.5917L84.7847 34H94.4923L99.798 30.5691L103.274 33.9945H121.26L128 8.50991L121.523 2.10913L119.444 0H2.08098ZM118.287 2.81218H4.26239L3.09078 7.54812L10.7731 15.2143L6.75064 31.1878H19.0914L20.966 24.1403L28.0235 31.1878H50.5127L62.1729 18.9265L58.9371 31.1878H75.1609L81.6438 27.0202L85.8671 31.1878H93.622L100.11 26.9919L104.378 31.1878H119.079L124.859 9.37047L118.287 2.81218Z" fill="#D5D5D5" fill-rule="evenodd"></path>
<path d="M21.9291 6.30544H6.8824L11.1727 10.58H15.5355L10.9551 27.6954H12.1713L18.074 11.2324L15.0167 27.6954H16.3723L20.9973 10.58H26.2137L21.9291 6.30544Z" fill="#D5D5D5"></path>
<path d="M40.4556 6.30544H24.7896L28.6448 10.1581L25.0797 23.4376L26.1174 24.4724L30.8651 11.2324L28.0478 26.4185L29.3643 27.7291H34.6533L36.4218 26.6041L41.9172 11.2719L39.429 24.6974L41.2199 23.4826L44.7067 10.5463L40.4556 6.30544ZM35.8416 23.4151H30.508L33.995 10.58H39.2951L35.8416 23.4151Z" fill="#D5D5D5"></path>
<path d="M43.117 6.30544L47.0669 10.2424L42.4307 27.6785H43.6468L49.5495 11.2156L46.4923 27.6954H47.8536L50.1187 19.1348H57.3268L60.9811 15.3271L62.4482 9.79261L58.9001 6.30544H43.117ZM56.6348 14.8603H51.2958L52.473 10.58H57.7675L56.6348 14.8603Z" fill="#D5D5D5"></path>
<path d="M79.9158 6.30544H64.2444C64.2704 6.36919 65.5591 7.65327 68.1106 10.1581L63.4466 27.6954H64.5958L70.4984 11.2324L67.4411 27.6954H74.1359C74.4573 27.578 74.7556 27.4048 75.0175 27.1836L75.8711 26.621L81.3887 11.2268L78.9061 24.6637C79.9623 23.9812 80.576 23.5932 80.7472 23.4994C80.9704 22.7495 82.1326 18.4375 84.234 10.5631L79.9158 6.30544ZM75.3354 23.4151H69.9795C71.5194 17.6144 72.3172 14.6633 72.373 14.5621C72.6633 13.2129 73.0361 11.8829 73.4887 10.58H78.7833L75.3354 23.4151Z" fill="#D5D5D5"></path>
<path d="M86.5292 10.1573C86.5292 10.1573 85.246 15.0674 83.0033 23.4143C83.1596 23.5887 83.5223 23.9767 84.0634 24.5054L88.8223 11.2317L86.0049 26.4177L87.2881 27.6832H92.538C92.8618 27.568 93.1624 27.3946 93.425 27.1714L94.3456 26.5753L99.8465 11.2203L97.3639 24.6066C98.3792 23.9541 98.9705 23.5773 99.1378 23.4818C99.361 22.7319 100.523 18.4196 102.625 10.5455L98.3401 6.31015H82.6686L86.5292 10.1573ZM97.202 10.5792L93.7597 23.4143H88.4205L91.913 10.5792H97.202Z" fill="#D5D5D5"></path>
<path d="M105.031 10.1571L101.5 23.4139L102.615 24.5389L107.363 11.2313L104.54 26.4513C104.931 26.845 105.349 27.2556 105.795 27.6942H112.719L116.552 17.0077L114.566 27.6942H116.546L119.949 14.8591H111.826C111.826 14.9603 110.71 19.1339 110.71 19.1339H113.4L112.284 23.4139H106.95L110.437 10.5788H121.149C120.777 10.1739 119.349 8.74726 116.864 6.29857H101.165C101.193 6.36605 105.031 10.1571 105.031 10.1571Z" fill="#D5D5D5"></path>
</svg>